<?xml version="1.0" encoding="utf-8" standalone="no"?>
<!DOCTYPE svg PUBLIC "-//W3C//DTD SVG 1.1//EN"
  "http://www.w3.org/Graphics/SVG/1.1/DTD/svg11.dtd">
<svg xmlns:xlink="http://www.w3.org/1999/xlink" width="360pt" height="360pt" viewBox="0 0 360 360" xmlns="http://www.w3.org/2000/svg" version="1.1">
 <metadata>
  <rdf:RDF xmlns:dc="http://purl.org/dc/elements/1.1/" xmlns:cc="http://creativecommons.org/ns#" xmlns:rdf="http://www.w3.org/1999/02/22-rdf-syntax-ns#">
   <cc:Work>
    <dc:type rdf:resource="http://purl.org/dc/dcmitype/StillImage"/>
    <dc:date>2023-12-07T18:20:00.529391</dc:date>
    <dc:format>image/svg+xml</dc:format>
    <dc:creator>
     <cc:Agent>
      <dc:title>Matplotlib v3.5.2, https://matplotlib.org/</dc:title>
     </cc:Agent>
    </dc:creator>
   </cc:Work>
  </rdf:RDF>
 </metadata>
 <defs>
  <style type="text/css">*{stroke-linejoin: round; stroke-linecap: butt}</style>
 </defs>
 <g id="figure_1">
  <g id="patch_1">
   <path d="M 0 360 
L 360 360 
L 360 0 
L 0 0 
z
" style="fill: #ffffff"/>
  </g>
  <g id="axes_1">
   <g id="patch_2">
    <path d="M 45 320.4 
L 324 320.4 
L 324 43.2 
L 45 43.2 
z
" style="fill: #ffffff"/>
   </g>
   <g id="PathCollection_1">
    <defs>
     <path id="m8e82c93685" d="M 0 3 
C 0.795609 3 1.55874 2.683901 2.12132 2.12132 
C 2.683901 1.55874 3 0.795609 3 0 
C 3 -0.795609 2.683901 -1.55874 2.12132 -2.12132 
C 1.55874 -2.683901 0.795609 -3 0 -3 
C -0.795609 -3 -1.55874 -2.683901 -2.12132 -2.12132 
C -2.683901 -1.55874 -3 -0.795609 -3 0 
C -3 0.795609 -2.683901 1.55874 -2.12132 2.12132 
C -1.55874 2.683901 -0.795609 3 0 3 
z
" style="stroke: #a9a9a9; stroke-opacity: 0.8"/>
    </defs>
    <g clip-path="url(#p38da8a27c6)">
     <use xlink:href="#m8e82c93685" x="84.673073" y="147.428787" style="fill: #a9a9a9; fill-opacity: 0.8; stroke: #a9a9a9; stroke-opacity: 0.8"/>
     <use xlink:href="#m8e82c93685" x="87.079713" y="98.487211" style="fill: #a9a9a9; fill-opacity: 0.8; stroke: #a9a9a9; stroke-opacity: 0.8"/>
     <use xlink:href="#m8e82c93685" x="87.347117" y="155.946617" style="fill: #a9a9a9; fill-opacity: 0.8; stroke: #a9a9a9; stroke-opacity: 0.8"/>
     <use xlink:href="#m8e82c93685" x="188.158571" y="68.299518" style="fill: #a9a9a9; fill-opacity: 0.8; stroke: #a9a9a9; stroke-opacity: 0.8"/>
     <use xlink:href="#m8e82c93685" x="227.467016" y="152.182238" style="fill: #a9a9a9; fill-opacity: 0.8; stroke: #a9a9a9; stroke-opacity: 0.8"/>
     <use xlink:href="#m8e82c93685" x="126.120753" y="111.04507" style="fill: #a9a9a9; fill-opacity: 0.8; stroke: #a9a9a9; stroke-opacity: 0.8"/>
     <use xlink:href="#m8e82c93685" x="158.20928" y="150.446053" style="fill: #a9a9a9; fill-opacity: 0.8; stroke: #a9a9a9; stroke-opacity: 0.8"/>
     <use xlink:href="#m8e82c93685" x="202.865813" y="98.642829" style="fill: #a9a9a9; fill-opacity: 0.8; stroke: #a9a9a9; stroke-opacity: 0.8"/>
     <use xlink:href="#m8e82c93685" x="231.745486" y="62.827867" style="fill: #a9a9a9; fill-opacity: 0.8; stroke: #a9a9a9; stroke-opacity: 0.8"/>
     <use xlink:href="#m8e82c93685" x="45.899437" y="107.487172" style="fill: #a9a9a9; fill-opacity: 0.8; stroke: #a9a9a9; stroke-opacity: 0.8"/>
     <use xlink:href="#m8e82c93685" x="67.559192" y="143.394195" style="fill: #a9a9a9; fill-opacity: 0.8; stroke: #a9a9a9; stroke-opacity: 0.8"/>
     <use xlink:href="#m8e82c93685" x="223.45595" y="94.392063" style="fill: #a9a9a9; fill-opacity: 0.8; stroke: #a9a9a9; stroke-opacity: 0.8"/>
     <use xlink:href="#m8e82c93685" x="219.979693" y="138.970662" style="fill: #a9a9a9; fill-opacity: 0.8; stroke: #a9a9a9; stroke-opacity: 0.8"/>
     <use xlink:href="#m8e82c93685" x="165.429198" y="68.425216" style="fill: #a9a9a9; fill-opacity: 0.8; stroke: #a9a9a9; stroke-opacity: 0.8"/>
     <use xlink:href="#m8e82c93685" x="169.17286" y="142.319727" style="fill: #a9a9a9; fill-opacity: 0.8; stroke: #a9a9a9; stroke-opacity: 0.8"/>
     <use xlink:href="#m8e82c93685" x="130.934032" y="65.188138" style="fill: #a9a9a9; fill-opacity: 0.8; stroke: #a9a9a9; stroke-opacity: 0.8"/>
     <use xlink:href="#m8e82c93685" x="58.200039" y="60.067398" style="fill: #a9a9a9; fill-opacity: 0.8; stroke: #a9a9a9; stroke-opacity: 0.8"/>
     <use xlink:href="#m8e82c93685" x="115.424578" y="101.088541" style="fill: #a9a9a9; fill-opacity: 0.8; stroke: #a9a9a9; stroke-opacity: 0.8"/>
     <use xlink:href="#m8e82c93685" x="185.217123" y="94.013652" style="fill: #a9a9a9; fill-opacity: 0.8; stroke: #a9a9a9; stroke-opacity: 0.8"/>
     <use xlink:href="#m8e82c93685" x="122.377092" y="73.569246" style="fill: #a9a9a9; fill-opacity: 0.8; stroke: #a9a9a9; stroke-opacity: 0.8"/>
     <use xlink:href="#m8e82c93685" x="86.544904" y="55.8" style="fill: #a9a9a9; fill-opacity: 0.8; stroke: #a9a9a9; stroke-opacity: 0.8"/>
     <use xlink:href="#m8e82c93685" x="66.489575" y="157.370932" style="fill: #a9a9a9; fill-opacity: 0.8; stroke: #a9a9a9; stroke-opacity: 0.8"/>
     <use xlink:href="#m8e82c93685" x="82.533838" y="150.487062" style="fill: #a9a9a9; fill-opacity: 0.8; stroke: #a9a9a9; stroke-opacity: 0.8"/>
     <use xlink:href="#m8e82c93685" x="75.848729" y="147.637007" style="fill: #a9a9a9; fill-opacity: 0.8; stroke: #a9a9a9; stroke-opacity: 0.8"/>
     <use xlink:href="#m8e82c93685" x="55.258591" y="145.829452" style="fill: #a9a9a9; fill-opacity: 0.8; stroke: #a9a9a9; stroke-opacity: 0.8"/>
     <use xlink:href="#m8e82c93685" x="62.211105" y="62.73065" style="fill: #a9a9a9; fill-opacity: 0.8; stroke: #a9a9a9; stroke-opacity: 0.8"/>
     <use xlink:href="#m8e82c93685" x="60.874083" y="154.998984" style="fill: #a9a9a9; fill-opacity: 0.8; stroke: #a9a9a9; stroke-opacity: 0.8"/>
     <use xlink:href="#m8e82c93685" x="69.698428" y="69.0585" style="fill: #a9a9a9; fill-opacity: 0.8; stroke: #a9a9a9; stroke-opacity: 0.8"/>
     <use xlink:href="#m8e82c93685" x="246.987536" y="56.227318" style="fill: #a9a9a9; fill-opacity: 0.8; stroke: #a9a9a9; stroke-opacity: 0.8"/>
     <use xlink:href="#m8e82c93685" x="267.31027" y="207.745284" style="fill: #a9a9a9; fill-opacity: 0.8; stroke: #a9a9a9; stroke-opacity: 0.8"/>
     <use xlink:href="#m8e82c93685" x="218.910076" y="69.712328" style="fill: #a9a9a9; fill-opacity: 0.8; stroke: #a9a9a9; stroke-opacity: 0.8"/>
     <use xlink:href="#m8e82c93685" x="227.734421" y="157.623698" style="fill: #a9a9a9; fill-opacity: 0.8; stroke: #a9a9a9; stroke-opacity: 0.8"/>
     <use xlink:href="#m8e82c93685" x="217.573054" y="155.814053" style="fill: #a9a9a9; fill-opacity: 0.8; stroke: #a9a9a9; stroke-opacity: 0.8"/>
     <use xlink:href="#m8e82c93685" x="324" y="73.549059" style="fill: #a9a9a9; fill-opacity: 0.8; stroke: #a9a9a9; stroke-opacity: 0.8"/>
     <use xlink:href="#m8e82c93685" x="218.910076" y="61.473025" style="fill: #a9a9a9; fill-opacity: 0.8; stroke: #a9a9a9; stroke-opacity: 0.8"/>
     <use xlink:href="#m8e82c93685" x="136.28212" y="112.620756" style="fill: #a9a9a9; fill-opacity: 0.8; stroke: #a9a9a9; stroke-opacity: 0.8"/>
     <use xlink:href="#m8e82c93685" x="155.80264" y="103.377356" style="fill: #a9a9a9; fill-opacity: 0.8; stroke: #a9a9a9; stroke-opacity: 0.8"/>
     <use xlink:href="#m8e82c93685" x="117.563813" y="75.828621" style="fill: #a9a9a9; fill-opacity: 0.8; stroke: #a9a9a9; stroke-opacity: 0.8"/>
     <use xlink:href="#m8e82c93685" x="260.090351" y="56.935781" style="fill: #a9a9a9; fill-opacity: 0.8; stroke: #a9a9a9; stroke-opacity: 0.8"/>
     <use xlink:href="#m8e82c93685" x="208.748709" y="159.419312" style="fill: #a9a9a9; fill-opacity: 0.8; stroke: #a9a9a9; stroke-opacity: 0.8"/>
     <use xlink:href="#m8e82c93685" x="210.085731" y="104.885371" style="fill: #a9a9a9; fill-opacity: 0.8; stroke: #a9a9a9; stroke-opacity: 0.8"/>
     <use xlink:href="#m8e82c93685" x="150.721957" y="110.481371" style="fill: #a9a9a9; fill-opacity: 0.8; stroke: #a9a9a9; stroke-opacity: 0.8"/>
     <use xlink:href="#m8e82c93685" x="96.706271" y="268.298171" style="fill: #a9a9a9; fill-opacity: 0.8; stroke: #a9a9a9; stroke-opacity: 0.8"/>
     <use xlink:href="#m8e82c93685" x="88.684139" y="142.988652" style="fill: #a9a9a9; fill-opacity: 0.8; stroke: #a9a9a9; stroke-opacity: 0.8"/>
     <use xlink:href="#m8e82c93685" x="175.055756" y="154.819305" style="fill: #a9a9a9; fill-opacity: 0.8; stroke: #a9a9a9; stroke-opacity: 0.8"/>
     <use xlink:href="#m8e82c93685" x="226.129994" y="74.027509" style="fill: #a9a9a9; fill-opacity: 0.8; stroke: #a9a9a9; stroke-opacity: 0.8"/>
     <use xlink:href="#m8e82c93685" x="179.066822" y="143.08152" style="fill: #a9a9a9; fill-opacity: 0.8; stroke: #a9a9a9; stroke-opacity: 0.8"/>
     <use xlink:href="#m8e82c93685" x="111.413512" y="138.653018" style="fill: #a9a9a9; fill-opacity: 0.8; stroke: #a9a9a9; stroke-opacity: 0.8"/>
     <use xlink:href="#m8e82c93685" x="172.381712" y="150.330728" style="fill: #a9a9a9; fill-opacity: 0.8; stroke: #a9a9a9; stroke-opacity: 0.8"/>
     <use xlink:href="#m8e82c93685" x="93.230014" y="146.717454" style="fill: #a9a9a9; fill-opacity: 0.8; stroke: #a9a9a9; stroke-opacity: 0.8"/>
     <use xlink:href="#m8e82c93685" x="191.634828" y="94.054466" style="fill: #a9a9a9; fill-opacity: 0.8; stroke: #a9a9a9; stroke-opacity: 0.8"/>
    </g>
   </g>
   <g id="PathCollection_2">
    <defs>
     <path id="m8b3c5108c4" d="M 0 3 
C 0.795609 3 1.55874 2.683901 2.12132 2.12132 
C 2.683901 1.55874 3 0.795609 3 0 
C 3 -0.795609 2.683901 -1.55874 2.12132 -2.12132 
C 1.55874 -2.683901 0.795609 -3 0 -3 
C -0.795609 -3 -1.55874 -2.683901 -2.12132 -2.12132 
C -2.683901 -1.55874 -3 -0.795609 -3 0 
C -3 0.795609 -2.683901 1.55874 -2.12132 2.12132 
C -1.55874 2.683901 -0.795609 3 0 3 
z
" style="stroke: #000000; stroke-opacity: 0.8"/>
    </defs>
    <g clip-path="url(#p38da8a27c6)">
     <use xlink:href="#m8b3c5108c4" x="84.673073" y="223.10321" style="fill-opacity: 0.8; stroke: #000000; stroke-opacity: 0.8"/>
     <use xlink:href="#m8b3c5108c4" x="87.079713" y="262.628378" style="fill-opacity: 0.8; stroke: #000000; stroke-opacity: 0.8"/>
     <use xlink:href="#m8b3c5108c4" x="87.347117" y="223.10321" style="fill-opacity: 0.8; stroke: #000000; stroke-opacity: 0.8"/>
     <use xlink:href="#m8b3c5108c4" x="188.158571" y="302.153547" style="fill-opacity: 0.8; stroke: #000000; stroke-opacity: 0.8"/>
     <use xlink:href="#m8b3c5108c4" x="227.467016" y="223.10321" style="fill-opacity: 0.8; stroke: #000000; stroke-opacity: 0.8"/>
     <use xlink:href="#m8b3c5108c4" x="126.120753" y="262.628378" style="fill-opacity: 0.8; stroke: #000000; stroke-opacity: 0.8"/>
     <use xlink:href="#m8b3c5108c4" x="158.20928" y="223.10321" style="fill-opacity: 0.8; stroke: #000000; stroke-opacity: 0.8"/>
     <use xlink:href="#m8b3c5108c4" x="202.865813" y="262.628378" style="fill-opacity: 0.8; stroke: #000000; stroke-opacity: 0.8"/>
     <use xlink:href="#m8b3c5108c4" x="231.745486" y="302.153547" style="fill-opacity: 0.8; stroke: #000000; stroke-opacity: 0.8"/>
     <use xlink:href="#m8b3c5108c4" x="45.899437" y="262.628378" style="fill-opacity: 0.8; stroke: #000000; stroke-opacity: 0.8"/>
     <use xlink:href="#m8b3c5108c4" x="67.559192" y="223.10321" style="fill-opacity: 0.8; stroke: #000000; stroke-opacity: 0.8"/>
     <use xlink:href="#m8b3c5108c4" x="223.45595" y="262.628378" style="fill-opacity: 0.8; stroke: #000000; stroke-opacity: 0.8"/>
     <use xlink:href="#m8b3c5108c4" x="219.979693" y="223.10321" style="fill-opacity: 0.8; stroke: #000000; stroke-opacity: 0.8"/>
     <use xlink:href="#m8b3c5108c4" x="165.429198" y="302.153547" style="fill-opacity: 0.8; stroke: #000000; stroke-opacity: 0.8"/>
     <use xlink:href="#m8b3c5108c4" x="169.17286" y="223.10321" style="fill-opacity: 0.8; stroke: #000000; stroke-opacity: 0.8"/>
     <use xlink:href="#m8b3c5108c4" x="130.934032" y="302.153547" style="fill-opacity: 0.8; stroke: #000000; stroke-opacity: 0.8"/>
     <use xlink:href="#m8b3c5108c4" x="58.200039" y="302.153547" style="fill-opacity: 0.8; stroke: #000000; stroke-opacity: 0.8"/>
     <use xlink:href="#m8b3c5108c4" x="115.424578" y="262.628378" style="fill-opacity: 0.8; stroke: #000000; stroke-opacity: 0.8"/>
     <use xlink:href="#m8b3c5108c4" x="185.217123" y="262.628378" style="fill-opacity: 0.8; stroke: #000000; stroke-opacity: 0.8"/>
     <use xlink:href="#m8b3c5108c4" x="122.377092" y="302.153547" style="fill-opacity: 0.8; stroke: #000000; stroke-opacity: 0.8"/>
     <use xlink:href="#m8b3c5108c4" x="86.544904" y="302.153547" style="fill-opacity: 0.8; stroke: #000000; stroke-opacity: 0.8"/>
     <use xlink:href="#m8b3c5108c4" x="66.489575" y="223.10321" style="fill-opacity: 0.8; stroke: #000000; stroke-opacity: 0.8"/>
     <use xlink:href="#m8b3c5108c4" x="82.533838" y="223.10321" style="fill-opacity: 0.8; stroke: #000000; stroke-opacity: 0.8"/>
     <use xlink:href="#m8b3c5108c4" x="75.848729" y="223.10321" style="fill-opacity: 0.8; stroke: #000000; stroke-opacity: 0.8"/>
     <use xlink:href="#m8b3c5108c4" x="55.258591" y="223.10321" style="fill-opacity: 0.8; stroke: #000000; stroke-opacity: 0.8"/>
     <use xlink:href="#m8b3c5108c4" x="62.211105" y="302.153547" style="fill-opacity: 0.8; stroke: #000000; stroke-opacity: 0.8"/>
     <use xlink:href="#m8b3c5108c4" x="60.874083" y="223.10321" style="fill-opacity: 0.8; stroke: #000000; stroke-opacity: 0.8"/>
     <use xlink:href="#m8b3c5108c4" x="69.698428" y="302.153547" style="fill-opacity: 0.8; stroke: #000000; stroke-opacity: 0.8"/>
     <use xlink:href="#m8b3c5108c4" x="246.987536" y="307.8" style="fill-opacity: 0.8; stroke: #000000; stroke-opacity: 0.8"/>
     <use xlink:href="#m8b3c5108c4" x="267.31027" y="183.578041" style="fill-opacity: 0.8; stroke: #000000; stroke-opacity: 0.8"/>
     <use xlink:href="#m8b3c5108c4" x="218.910076" y="307.8" style="fill-opacity: 0.8; stroke: #000000; stroke-opacity: 0.8"/>
     <use xlink:href="#m8b3c5108c4" x="227.734421" y="228.749662" style="fill-opacity: 0.8; stroke: #000000; stroke-opacity: 0.8"/>
     <use xlink:href="#m8b3c5108c4" x="217.573054" y="228.749662" style="fill-opacity: 0.8; stroke: #000000; stroke-opacity: 0.8"/>
     <use xlink:href="#m8b3c5108c4" x="324" y="307.8" style="fill-opacity: 0.8; stroke: #000000; stroke-opacity: 0.8"/>
     <use xlink:href="#m8b3c5108c4" x="218.910076" y="307.8" style="fill-opacity: 0.8; stroke: #000000; stroke-opacity: 0.8"/>
     <use xlink:href="#m8b3c5108c4" x="136.28212" y="268.274831" style="fill-opacity: 0.8; stroke: #000000; stroke-opacity: 0.8"/>
     <use xlink:href="#m8b3c5108c4" x="155.80264" y="268.274831" style="fill-opacity: 0.8; stroke: #000000; stroke-opacity: 0.8"/>
     <use xlink:href="#m8b3c5108c4" x="117.563813" y="307.8" style="fill-opacity: 0.8; stroke: #000000; stroke-opacity: 0.8"/>
     <use xlink:href="#m8b3c5108c4" x="260.090351" y="307.8" style="fill-opacity: 0.8; stroke: #000000; stroke-opacity: 0.8"/>
     <use xlink:href="#m8b3c5108c4" x="208.748709" y="228.749662" style="fill-opacity: 0.8; stroke: #000000; stroke-opacity: 0.8"/>
     <use xlink:href="#m8b3c5108c4" x="210.085731" y="268.274831" style="fill-opacity: 0.8; stroke: #000000; stroke-opacity: 0.8"/>
     <use xlink:href="#m8b3c5108c4" x="150.721957" y="268.274831" style="fill-opacity: 0.8; stroke: #000000; stroke-opacity: 0.8"/>
     <use xlink:href="#m8b3c5108c4" x="96.706271" y="110.174156" style="fill-opacity: 0.8; stroke: #000000; stroke-opacity: 0.8"/>
     <use xlink:href="#m8b3c5108c4" x="88.684139" y="228.749662" style="fill-opacity: 0.8; stroke: #000000; stroke-opacity: 0.8"/>
     <use xlink:href="#m8b3c5108c4" x="175.055756" y="228.749662" style="fill-opacity: 0.8; stroke: #000000; stroke-opacity: 0.8"/>
     <use xlink:href="#m8b3c5108c4" x="226.129994" y="307.8" style="fill-opacity: 0.8; stroke: #000000; stroke-opacity: 0.8"/>
     <use xlink:href="#m8b3c5108c4" x="179.066822" y="228.749662" style="fill-opacity: 0.8; stroke: #000000; stroke-opacity: 0.8"/>
     <use xlink:href="#m8b3c5108c4" x="111.413512" y="228.749662" style="fill-opacity: 0.8; stroke: #000000; stroke-opacity: 0.8"/>
     <use xlink:href="#m8b3c5108c4" x="172.381712" y="228.749662" style="fill-opacity: 0.8; stroke: #000000; stroke-opacity: 0.8"/>
     <use xlink:href="#m8b3c5108c4" x="93.230014" y="228.749662" style="fill-opacity: 0.8; stroke: #000000; stroke-opacity: 0.8"/>
     <use xlink:href="#m8b3c5108c4" x="191.634828" y="268.274831" style="fill-opacity: 0.8; stroke: #000000; stroke-opacity: 0.8"/>
    </g>
   </g>
   <g id="matplotlib.axis_1">
    <g id="xtick_1">
     <g id="line2d_1">
      <defs>
       <path id="m2a45ed2e76" d="M 0 0 
L 0 3.5 
" style="stroke: #000000; stroke-width: 0.8"/>
      </defs>
      <g>
       <use xlink:href="#m2a45ed2e76" x="45" y="320.4" style="stroke: #000000; stroke-width: 0.8"/>
      </g>
     </g>
     <g id="text_1">
      <!-- 0.0 -->
      <g transform="translate(37.048437 334.998438)scale(0.1 -0.1)">
       <defs>
        <path id="DejaVuSans-30" d="M 2034 4250 
Q 1547 4250 1301 3770 
Q 1056 3291 1056 2328 
Q 1056 1369 1301 889 
Q 1547 409 2034 409 
Q 2525 409 2770 889 
Q 3016 1369 3016 2328 
Q 3016 3291 2770 3770 
Q 2525 4250 2034 4250 
z
M 2034 4750 
Q 2819 4750 3233 4129 
Q 3647 3509 3647 2328 
Q 3647 1150 3233 529 
Q 2819 -91 2034 -91 
Q 1250 -91 836 529 
Q 422 1150 422 2328 
Q 422 3509 836 4129 
Q 1250 4750 2034 4750 
z
" transform="scale(0.015625)"/>
        <path id="DejaVuSans-2e" d="M 684 794 
L 1344 794 
L 1344 0 
L 684 0 
L 684 794 
z
" transform="scale(0.015625)"/>
       </defs>
       <use xlink:href="#DejaVuSans-30"/>
       <use xlink:href="#DejaVuSans-2e" x="63.623047"/>
       <use xlink:href="#DejaVuSans-30" x="95.410156"/>
      </g>
     </g>
    </g>
    <g id="xtick_2">
     <g id="line2d_2">
      <g>
       <use xlink:href="#m2a45ed2e76" x="97.104135" y="320.4" style="stroke: #000000; stroke-width: 0.8"/>
      </g>
     </g>
     <g id="text_2">
      <!-- 0.5 -->
      <g transform="translate(89.152573 334.998438)scale(0.1 -0.1)">
       <defs>
        <path id="DejaVuSans-35" d="M 691 4666 
L 3169 4666 
L 3169 4134 
L 1269 4134 
L 1269 2991 
Q 1406 3038 1543 3061 
Q 1681 3084 1819 3084 
Q 2600 3084 3056 2656 
Q 3513 2228 3513 1497 
Q 3513 744 3044 326 
Q 2575 -91 1722 -91 
Q 1428 -91 1123 -41 
Q 819 9 494 109 
L 494 744 
Q 775 591 1075 516 
Q 1375 441 1709 441 
Q 2250 441 2565 725 
Q 2881 1009 2881 1497 
Q 2881 1984 2565 2268 
Q 2250 2553 1709 2553 
Q 1456 2553 1204 2497 
Q 953 2441 691 2322 
L 691 4666 
z
" transform="scale(0.015625)"/>
       </defs>
       <use xlink:href="#DejaVuSans-30"/>
       <use xlink:href="#DejaVuSans-2e" x="63.623047"/>
       <use xlink:href="#DejaVuSans-35" x="95.410156"/>
      </g>
     </g>
    </g>
    <g id="xtick_3">
     <g id="line2d_3">
      <g>
       <use xlink:href="#m2a45ed2e76" x="149.20827" y="320.4" style="stroke: #000000; stroke-width: 0.8"/>
      </g>
     </g>
     <g id="text_3">
      <!-- 1.0 -->
      <g transform="translate(141.256708 334.998438)scale(0.1 -0.1)">
       <defs>
        <path id="DejaVuSans-31" d="M 794 531 
L 1825 531 
L 1825 4091 
L 703 3866 
L 703 4441 
L 1819 4666 
L 2450 4666 
L 2450 531 
L 3481 531 
L 3481 0 
L 794 0 
L 794 531 
z
" transform="scale(0.015625)"/>
       </defs>
       <use xlink:href="#DejaVuSans-31"/>
       <use xlink:href="#DejaVuSans-2e" x="63.623047"/>
       <use xlink:href="#DejaVuSans-30" x="95.410156"/>
      </g>
     </g>
    </g>
    <g id="xtick_4">
     <g id="line2d_4">
      <g>
       <use xlink:href="#m2a45ed2e76" x="201.312406" y="320.4" style="stroke: #000000; stroke-width: 0.8"/>
      </g>
     </g>
     <g id="text_4">
      <!-- 1.5 -->
      <g transform="translate(193.360843 334.998438)scale(0.1 -0.1)">
       <use xlink:href="#DejaVuSans-31"/>
       <use xlink:href="#DejaVuSans-2e" x="63.623047"/>
       <use xlink:href="#DejaVuSans-35" x="95.410156"/>
      </g>
     </g>
    </g>
    <g id="xtick_5">
     <g id="line2d_5">
      <g>
       <use xlink:href="#m2a45ed2e76" x="253.416541" y="320.4" style="stroke: #000000; stroke-width: 0.8"/>
      </g>
     </g>
     <g id="text_5">
      <!-- 2.0 -->
      <g transform="translate(245.464978 334.998438)scale(0.1 -0.1)">
       <defs>
        <path id="DejaVuSans-32" d="M 1228 531 
L 3431 531 
L 3431 0 
L 469 0 
L 469 531 
Q 828 903 1448 1529 
Q 2069 2156 2228 2338 
Q 2531 2678 2651 2914 
Q 2772 3150 2772 3378 
Q 2772 3750 2511 3984 
Q 2250 4219 1831 4219 
Q 1534 4219 1204 4116 
Q 875 4013 500 3803 
L 500 4441 
Q 881 4594 1212 4672 
Q 1544 4750 1819 4750 
Q 2544 4750 2975 4387 
Q 3406 4025 3406 3419 
Q 3406 3131 3298 2873 
Q 3191 2616 2906 2266 
Q 2828 2175 2409 1742 
Q 1991 1309 1228 531 
z
" transform="scale(0.015625)"/>
       </defs>
       <use xlink:href="#DejaVuSans-32"/>
       <use xlink:href="#DejaVuSans-2e" x="63.623047"/>
       <use xlink:href="#DejaVuSans-30" x="95.410156"/>
      </g>
     </g>
    </g>
    <g id="xtick_6">
     <g id="line2d_6">
      <g>
       <use xlink:href="#m2a45ed2e76" x="305.520676" y="320.4" style="stroke: #000000; stroke-width: 0.8"/>
      </g>
     </g>
     <g id="text_6">
      <!-- 2.5 -->
      <g transform="translate(297.569114 334.998438)scale(0.1 -0.1)">
       <use xlink:href="#DejaVuSans-32"/>
       <use xlink:href="#DejaVuSans-2e" x="63.623047"/>
       <use xlink:href="#DejaVuSans-35" x="95.410156"/>
      </g>
     </g>
    </g>
    <g id="text_7">
     <!-- 5 Ring Winter LAI -->
     <g transform="translate(141.070312 348.676562)scale(0.1 -0.1)">
      <defs>
       <path id="DejaVuSans-20" transform="scale(0.015625)"/>
       <path id="DejaVuSans-52" d="M 2841 2188 
Q 3044 2119 3236 1894 
Q 3428 1669 3622 1275 
L 4263 0 
L 3584 0 
L 2988 1197 
Q 2756 1666 2539 1819 
Q 2322 1972 1947 1972 
L 1259 1972 
L 1259 0 
L 628 0 
L 628 4666 
L 2053 4666 
Q 2853 4666 3247 4331 
Q 3641 3997 3641 3322 
Q 3641 2881 3436 2590 
Q 3231 2300 2841 2188 
z
M 1259 4147 
L 1259 2491 
L 2053 2491 
Q 2509 2491 2742 2702 
Q 2975 2913 2975 3322 
Q 2975 3731 2742 3939 
Q 2509 4147 2053 4147 
L 1259 4147 
z
" transform="scale(0.015625)"/>
       <path id="DejaVuSans-69" d="M 603 3500 
L 1178 3500 
L 1178 0 
L 603 0 
L 603 3500 
z
M 603 4863 
L 1178 4863 
L 1178 4134 
L 603 4134 
L 603 4863 
z
" transform="scale(0.015625)"/>
       <path id="DejaVuSans-6e" d="M 3513 2113 
L 3513 0 
L 2938 0 
L 2938 2094 
Q 2938 2591 2744 2837 
Q 2550 3084 2163 3084 
Q 1697 3084 1428 2787 
Q 1159 2491 1159 1978 
L 1159 0 
L 581 0 
L 581 3500 
L 1159 3500 
L 1159 2956 
Q 1366 3272 1645 3428 
Q 1925 3584 2291 3584 
Q 2894 3584 3203 3211 
Q 3513 2838 3513 2113 
z
" transform="scale(0.015625)"/>
       <path id="DejaVuSans-67" d="M 2906 1791 
Q 2906 2416 2648 2759 
Q 2391 3103 1925 3103 
Q 1463 3103 1205 2759 
Q 947 2416 947 1791 
Q 947 1169 1205 825 
Q 1463 481 1925 481 
Q 2391 481 2648 825 
Q 2906 1169 2906 1791 
z
M 3481 434 
Q 3481 -459 3084 -895 
Q 2688 -1331 1869 -1331 
Q 1566 -1331 1297 -1286 
Q 1028 -1241 775 -1147 
L 775 -588 
Q 1028 -725 1275 -790 
Q 1522 -856 1778 -856 
Q 2344 -856 2625 -561 
Q 2906 -266 2906 331 
L 2906 616 
Q 2728 306 2450 153 
Q 2172 0 1784 0 
Q 1141 0 747 490 
Q 353 981 353 1791 
Q 353 2603 747 3093 
Q 1141 3584 1784 3584 
Q 2172 3584 2450 3431 
Q 2728 3278 2906 2969 
L 2906 3500 
L 3481 3500 
L 3481 434 
z
" transform="scale(0.015625)"/>
       <path id="DejaVuSans-57" d="M 213 4666 
L 850 4666 
L 1831 722 
L 2809 4666 
L 3519 4666 
L 4500 722 
L 5478 4666 
L 6119 4666 
L 4947 0 
L 4153 0 
L 3169 4050 
L 2175 0 
L 1381 0 
L 213 4666 
z
" transform="scale(0.015625)"/>
       <path id="DejaVuSans-74" d="M 1172 4494 
L 1172 3500 
L 2356 3500 
L 2356 3053 
L 1172 3053 
L 1172 1153 
Q 1172 725 1289 603 
Q 1406 481 1766 481 
L 2356 481 
L 2356 0 
L 1766 0 
Q 1100 0 847 248 
Q 594 497 594 1153 
L 594 3053 
L 172 3053 
L 172 3500 
L 594 3500 
L 594 4494 
L 1172 4494 
z
" transform="scale(0.015625)"/>
       <path id="DejaVuSans-65" d="M 3597 1894 
L 3597 1613 
L 953 1613 
Q 991 1019 1311 708 
Q 1631 397 2203 397 
Q 2534 397 2845 478 
Q 3156 559 3463 722 
L 3463 178 
Q 3153 47 2828 -22 
Q 2503 -91 2169 -91 
Q 1331 -91 842 396 
Q 353 884 353 1716 
Q 353 2575 817 3079 
Q 1281 3584 2069 3584 
Q 2775 3584 3186 3129 
Q 3597 2675 3597 1894 
z
M 3022 2063 
Q 3016 2534 2758 2815 
Q 2500 3097 2075 3097 
Q 1594 3097 1305 2825 
Q 1016 2553 972 2059 
L 3022 2063 
z
" transform="scale(0.015625)"/>
       <path id="DejaVuSans-72" d="M 2631 2963 
Q 2534 3019 2420 3045 
Q 2306 3072 2169 3072 
Q 1681 3072 1420 2755 
Q 1159 2438 1159 1844 
L 1159 0 
L 581 0 
L 581 3500 
L 1159 3500 
L 1159 2956 
Q 1341 3275 1631 3429 
Q 1922 3584 2338 3584 
Q 2397 3584 2469 3576 
Q 2541 3569 2628 3553 
L 2631 2963 
z
" transform="scale(0.015625)"/>
       <path id="DejaVuSans-4c" d="M 628 4666 
L 1259 4666 
L 1259 531 
L 3531 531 
L 3531 0 
L 628 0 
L 628 4666 
z
" transform="scale(0.015625)"/>
       <path id="DejaVuSans-41" d="M 2188 4044 
L 1331 1722 
L 3047 1722 
L 2188 4044 
z
M 1831 4666 
L 2547 4666 
L 4325 0 
L 3669 0 
L 3244 1197 
L 1141 1197 
L 716 0 
L 50 0 
L 1831 4666 
z
" transform="scale(0.015625)"/>
       <path id="DejaVuSans-49" d="M 628 4666 
L 1259 4666 
L 1259 0 
L 628 0 
L 628 4666 
z
" transform="scale(0.015625)"/>
      </defs>
      <use xlink:href="#DejaVuSans-35"/>
      <use xlink:href="#DejaVuSans-20" x="63.623047"/>
      <use xlink:href="#DejaVuSans-52" x="95.410156"/>
      <use xlink:href="#DejaVuSans-69" x="164.892578"/>
      <use xlink:href="#DejaVuSans-6e" x="192.675781"/>
      <use xlink:href="#DejaVuSans-67" x="256.054688"/>
      <use xlink:href="#DejaVuSans-20" x="319.53125"/>
      <use xlink:href="#DejaVuSans-57" x="351.318359"/>
      <use xlink:href="#DejaVuSans-69" x="447.945312"/>
      <use xlink:href="#DejaVuSans-6e" x="475.728516"/>
      <use xlink:href="#DejaVuSans-74" x="539.107422"/>
      <use xlink:href="#DejaVuSans-65" x="578.316406"/>
      <use xlink:href="#DejaVuSans-72" x="639.839844"/>
      <use xlink:href="#DejaVuSans-20" x="680.953125"/>
      <use xlink:href="#DejaVuSans-4c" x="712.740234"/>
      <use xlink:href="#DejaVuSans-41" x="770.703125"/>
      <use xlink:href="#DejaVuSans-49" x="839.111328"/>
     </g>
    </g>
   </g>
   <g id="matplotlib.axis_2">
    <g id="ytick_1">
     <g id="line2d_7">
      <defs>
       <path id="m7b70232c62" d="M 0 0 
L -3.5 0 
" style="stroke: #000000; stroke-width: 0.8"/>
      </defs>
      <g>
       <use xlink:href="#m7b70232c62" x="45" y="290.860642" style="stroke: #000000; stroke-width: 0.8"/>
      </g>
     </g>
     <g id="text_8">
      <!-- 30 -->
      <g transform="translate(25.275 294.659861)scale(0.1 -0.1)">
       <defs>
        <path id="DejaVuSans-33" d="M 2597 2516 
Q 3050 2419 3304 2112 
Q 3559 1806 3559 1356 
Q 3559 666 3084 287 
Q 2609 -91 1734 -91 
Q 1441 -91 1130 -33 
Q 819 25 488 141 
L 488 750 
Q 750 597 1062 519 
Q 1375 441 1716 441 
Q 2309 441 2620 675 
Q 2931 909 2931 1356 
Q 2931 1769 2642 2001 
Q 2353 2234 1838 2234 
L 1294 2234 
L 1294 2753 
L 1863 2753 
Q 2328 2753 2575 2939 
Q 2822 3125 2822 3475 
Q 2822 3834 2567 4026 
Q 2313 4219 1838 4219 
Q 1578 4219 1281 4162 
Q 984 4106 628 3988 
L 628 4550 
Q 988 4650 1302 4700 
Q 1616 4750 1894 4750 
Q 2613 4750 3031 4423 
Q 3450 4097 3450 3541 
Q 3450 3153 3228 2886 
Q 3006 2619 2597 2516 
z
" transform="scale(0.015625)"/>
       </defs>
       <use xlink:href="#DejaVuSans-33"/>
       <use xlink:href="#DejaVuSans-30" x="63.623047"/>
      </g>
     </g>
    </g>
    <g id="ytick_2">
     <g id="line2d_8">
      <g>
       <use xlink:href="#m7b70232c62" x="45" y="234.396115" style="stroke: #000000; stroke-width: 0.8"/>
      </g>
     </g>
     <g id="text_9">
      <!-- 40 -->
      <g transform="translate(25.275 238.195334)scale(0.1 -0.1)">
       <defs>
        <path id="DejaVuSans-34" d="M 2419 4116 
L 825 1625 
L 2419 1625 
L 2419 4116 
z
M 2253 4666 
L 3047 4666 
L 3047 1625 
L 3713 1625 
L 3713 1100 
L 3047 1100 
L 3047 0 
L 2419 0 
L 2419 1100 
L 313 1100 
L 313 1709 
L 2253 4666 
z
" transform="scale(0.015625)"/>
       </defs>
       <use xlink:href="#DejaVuSans-34"/>
       <use xlink:href="#DejaVuSans-30" x="63.623047"/>
      </g>
     </g>
    </g>
    <g id="ytick_3">
     <g id="line2d_9">
      <g>
       <use xlink:href="#m7b70232c62" x="45" y="177.931588" style="stroke: #000000; stroke-width: 0.8"/>
      </g>
     </g>
     <g id="text_10">
      <!-- 50 -->
      <g transform="translate(25.275 181.730807)scale(0.1 -0.1)">
       <use xlink:href="#DejaVuSans-35"/>
       <use xlink:href="#DejaVuSans-30" x="63.623047"/>
      </g>
     </g>
    </g>
    <g id="ytick_4">
     <g id="line2d_10">
      <g>
       <use xlink:href="#m7b70232c62" x="45" y="121.467061" style="stroke: #000000; stroke-width: 0.8"/>
      </g>
     </g>
     <g id="text_11">
      <!-- 60 -->
      <g transform="translate(25.275 125.26628)scale(0.1 -0.1)">
       <defs>
        <path id="DejaVuSans-36" d="M 2113 2584 
Q 1688 2584 1439 2293 
Q 1191 2003 1191 1497 
Q 1191 994 1439 701 
Q 1688 409 2113 409 
Q 2538 409 2786 701 
Q 3034 994 3034 1497 
Q 3034 2003 2786 2293 
Q 2538 2584 2113 2584 
z
M 3366 4563 
L 3366 3988 
Q 3128 4100 2886 4159 
Q 2644 4219 2406 4219 
Q 1781 4219 1451 3797 
Q 1122 3375 1075 2522 
Q 1259 2794 1537 2939 
Q 1816 3084 2150 3084 
Q 2853 3084 3261 2657 
Q 3669 2231 3669 1497 
Q 3669 778 3244 343 
Q 2819 -91 2113 -91 
Q 1303 -91 875 529 
Q 447 1150 447 2328 
Q 447 3434 972 4092 
Q 1497 4750 2381 4750 
Q 2619 4750 2861 4703 
Q 3103 4656 3366 4563 
z
" transform="scale(0.015625)"/>
       </defs>
       <use xlink:href="#DejaVuSans-36"/>
       <use xlink:href="#DejaVuSans-30" x="63.623047"/>
      </g>
     </g>
    </g>
    <g id="ytick_5">
     <g id="line2d_11">
      <g>
       <use xlink:href="#m7b70232c62" x="45" y="65.002534" style="stroke: #000000; stroke-width: 0.8"/>
      </g>
     </g>
     <g id="text_12">
      <!-- 70 -->
      <g transform="translate(25.275 68.801753)scale(0.1 -0.1)">
       <defs>
        <path id="DejaVuSans-37" d="M 525 4666 
L 3525 4666 
L 3525 4397 
L 1831 0 
L 1172 0 
L 2766 4134 
L 525 4134 
L 525 4666 
z
" transform="scale(0.015625)"/>
       </defs>
       <use xlink:href="#DejaVuSans-37"/>
       <use xlink:href="#DejaVuSans-30" x="63.623047"/>
      </g>
     </g>
    </g>
    <g id="text_13">
     <!-- Season Length, days -->
     <g transform="translate(19.195312 233.764062)rotate(-90)scale(0.1 -0.1)">
      <defs>
       <path id="DejaVuSans-53" d="M 3425 4513 
L 3425 3897 
Q 3066 4069 2747 4153 
Q 2428 4238 2131 4238 
Q 1616 4238 1336 4038 
Q 1056 3838 1056 3469 
Q 1056 3159 1242 3001 
Q 1428 2844 1947 2747 
L 2328 2669 
Q 3034 2534 3370 2195 
Q 3706 1856 3706 1288 
Q 3706 609 3251 259 
Q 2797 -91 1919 -91 
Q 1588 -91 1214 -16 
Q 841 59 441 206 
L 441 856 
Q 825 641 1194 531 
Q 1563 422 1919 422 
Q 2459 422 2753 634 
Q 3047 847 3047 1241 
Q 3047 1584 2836 1778 
Q 2625 1972 2144 2069 
L 1759 2144 
Q 1053 2284 737 2584 
Q 422 2884 422 3419 
Q 422 4038 858 4394 
Q 1294 4750 2059 4750 
Q 2388 4750 2728 4690 
Q 3069 4631 3425 4513 
z
" transform="scale(0.015625)"/>
       <path id="DejaVuSans-61" d="M 2194 1759 
Q 1497 1759 1228 1600 
Q 959 1441 959 1056 
Q 959 750 1161 570 
Q 1363 391 1709 391 
Q 2188 391 2477 730 
Q 2766 1069 2766 1631 
L 2766 1759 
L 2194 1759 
z
M 3341 1997 
L 3341 0 
L 2766 0 
L 2766 531 
Q 2569 213 2275 61 
Q 1981 -91 1556 -91 
Q 1019 -91 701 211 
Q 384 513 384 1019 
Q 384 1609 779 1909 
Q 1175 2209 1959 2209 
L 2766 2209 
L 2766 2266 
Q 2766 2663 2505 2880 
Q 2244 3097 1772 3097 
Q 1472 3097 1187 3025 
Q 903 2953 641 2809 
L 641 3341 
Q 956 3463 1253 3523 
Q 1550 3584 1831 3584 
Q 2591 3584 2966 3190 
Q 3341 2797 3341 1997 
z
" transform="scale(0.015625)"/>
       <path id="DejaVuSans-73" d="M 2834 3397 
L 2834 2853 
Q 2591 2978 2328 3040 
Q 2066 3103 1784 3103 
Q 1356 3103 1142 2972 
Q 928 2841 928 2578 
Q 928 2378 1081 2264 
Q 1234 2150 1697 2047 
L 1894 2003 
Q 2506 1872 2764 1633 
Q 3022 1394 3022 966 
Q 3022 478 2636 193 
Q 2250 -91 1575 -91 
Q 1294 -91 989 -36 
Q 684 19 347 128 
L 347 722 
Q 666 556 975 473 
Q 1284 391 1588 391 
Q 1994 391 2212 530 
Q 2431 669 2431 922 
Q 2431 1156 2273 1281 
Q 2116 1406 1581 1522 
L 1381 1569 
Q 847 1681 609 1914 
Q 372 2147 372 2553 
Q 372 3047 722 3315 
Q 1072 3584 1716 3584 
Q 2034 3584 2315 3537 
Q 2597 3491 2834 3397 
z
" transform="scale(0.015625)"/>
       <path id="DejaVuSans-6f" d="M 1959 3097 
Q 1497 3097 1228 2736 
Q 959 2375 959 1747 
Q 959 1119 1226 758 
Q 1494 397 1959 397 
Q 2419 397 2687 759 
Q 2956 1122 2956 1747 
Q 2956 2369 2687 2733 
Q 2419 3097 1959 3097 
z
M 1959 3584 
Q 2709 3584 3137 3096 
Q 3566 2609 3566 1747 
Q 3566 888 3137 398 
Q 2709 -91 1959 -91 
Q 1206 -91 779 398 
Q 353 888 353 1747 
Q 353 2609 779 3096 
Q 1206 3584 1959 3584 
z
" transform="scale(0.015625)"/>
       <path id="DejaVuSans-68" d="M 3513 2113 
L 3513 0 
L 2938 0 
L 2938 2094 
Q 2938 2591 2744 2837 
Q 2550 3084 2163 3084 
Q 1697 3084 1428 2787 
Q 1159 2491 1159 1978 
L 1159 0 
L 581 0 
L 581 4863 
L 1159 4863 
L 1159 2956 
Q 1366 3272 1645 3428 
Q 1925 3584 2291 3584 
Q 2894 3584 3203 3211 
Q 3513 2838 3513 2113 
z
" transform="scale(0.015625)"/>
       <path id="DejaVuSans-2c" d="M 750 794 
L 1409 794 
L 1409 256 
L 897 -744 
L 494 -744 
L 750 256 
L 750 794 
z
" transform="scale(0.015625)"/>
       <path id="DejaVuSans-64" d="M 2906 2969 
L 2906 4863 
L 3481 4863 
L 3481 0 
L 2906 0 
L 2906 525 
Q 2725 213 2448 61 
Q 2172 -91 1784 -91 
Q 1150 -91 751 415 
Q 353 922 353 1747 
Q 353 2572 751 3078 
Q 1150 3584 1784 3584 
Q 2172 3584 2448 3432 
Q 2725 3281 2906 2969 
z
M 947 1747 
Q 947 1113 1208 752 
Q 1469 391 1925 391 
Q 2381 391 2643 752 
Q 2906 1113 2906 1747 
Q 2906 2381 2643 2742 
Q 2381 3103 1925 3103 
Q 1469 3103 1208 2742 
Q 947 2381 947 1747 
z
" transform="scale(0.015625)"/>
       <path id="DejaVuSans-79" d="M 2059 -325 
Q 1816 -950 1584 -1140 
Q 1353 -1331 966 -1331 
L 506 -1331 
L 506 -850 
L 844 -850 
Q 1081 -850 1212 -737 
Q 1344 -625 1503 -206 
L 1606 56 
L 191 3500 
L 800 3500 
L 1894 763 
L 2988 3500 
L 3597 3500 
L 2059 -325 
z
" transform="scale(0.015625)"/>
      </defs>
      <use xlink:href="#DejaVuSans-53"/>
      <use xlink:href="#DejaVuSans-65" x="63.476562"/>
      <use xlink:href="#DejaVuSans-61" x="125"/>
      <use xlink:href="#DejaVuSans-73" x="186.279297"/>
      <use xlink:href="#DejaVuSans-6f" x="238.378906"/>
      <use xlink:href="#DejaVuSans-6e" x="299.560547"/>
      <use xlink:href="#DejaVuSans-20" x="362.939453"/>
      <use xlink:href="#DejaVuSans-4c" x="394.726562"/>
      <use xlink:href="#DejaVuSans-65" x="448.689453"/>
      <use xlink:href="#DejaVuSans-6e" x="510.212891"/>
      <use xlink:href="#DejaVuSans-67" x="573.591797"/>
      <use xlink:href="#DejaVuSans-74" x="637.068359"/>
      <use xlink:href="#DejaVuSans-68" x="676.277344"/>
      <use xlink:href="#DejaVuSans-2c" x="739.65625"/>
      <use xlink:href="#DejaVuSans-20" x="771.443359"/>
      <use xlink:href="#DejaVuSans-64" x="803.230469"/>
      <use xlink:href="#DejaVuSans-61" x="866.707031"/>
      <use xlink:href="#DejaVuSans-79" x="927.986328"/>
      <use xlink:href="#DejaVuSans-73" x="987.166016"/>
     </g>
    </g>
   </g>
   <g id="line2d_12">
    <path d="M 45.899437 127.492729 
L 55.258591 126.099679 
L 58.200039 125.605688 
L 60.874083 125.133622 
L 62.211105 124.889732 
L 66.489575 124.077066 
L 67.559192 123.867098 
L 69.698428 123.440065 
L 75.848729 122.169853 
L 82.533838 120.755623 
L 84.673073 120.304255 
L 86.544904 119.91208 
L 87.079713 119.800634 
L 87.347117 119.745027 
L 88.684139 119.468294 
L 93.230014 118.547901 
L 96.706271 117.870892 
L 111.413512 115.218151 
L 115.424578 114.445008 
L 117.563813 114.256991 
L 122.377092 113.764233 
L 126.120753 114.201941 
L 130.934032 114.205413 
L 136.28212 113.522579 
L 150.721957 110.342365 
L 155.80264 110.110769 
L 158.20928 110.335862 
L 165.429198 110.655157 
L 169.17286 110.872334 
L 172.381712 110.979902 
L 175.055756 111.152656 
L 179.066822 111.519653 
L 185.217123 111.728064 
L 188.158571 111.481295 
L 191.634828 111.150559 
L 202.865813 110.049132 
L 208.748709 109.487196 
L 210.085731 109.359488 
L 217.573054 108.246594 
L 218.910076 108.017313 
L 218.910076 108.017313 
L 219.979693 107.83677 
L 223.45595 107.199338 
L 226.129994 106.632361 
L 227.467016 106.321134 
L 227.734421 106.256728 
L 231.745486 105.211966 
L 246.987536 100.472509 
L 260.090351 96.160755 
L 267.31027 93.81521 
L 324 76.215334 
" clip-path="url(#p38da8a27c6)" style="fill: none; stroke: #a9a9a9; stroke-width: 2.25; stroke-linecap: square"/>
   </g>
   <g id="line2d_13">
    <path d="M 45.899437 243.330335 
L 55.258591 245.055338 
L 58.200039 245.642821 
L 60.874083 246.195264 
L 62.211105 246.477697 
L 66.489575 247.406461 
L 67.559192 247.643779 
L 69.698428 248.123571 
L 75.848729 249.531859 
L 82.533838 251.076533 
L 84.673073 251.566158 
L 86.544904 251.990687 
L 87.079713 252.111206 
L 87.347117 252.171324 
L 88.684139 252.470372 
L 93.230014 253.46463 
L 96.706271 254.197462 
L 111.413512 257.088003 
L 115.424578 257.91671 
L 117.563813 258.141241 
L 122.377092 258.70738 
L 126.120753 258.351029 
L 130.934032 258.386009 
L 136.28212 259.025713 
L 150.721957 261.782437 
L 155.80264 261.873533 
L 158.20928 261.641949 
L 165.429198 261.423578 
L 169.17286 261.25906 
L 172.381712 261.204322 
L 175.055756 261.077388 
L 179.066822 260.794873 
L 185.217123 260.714447 
L 188.158571 261.005935 
L 191.634828 261.394415 
L 202.865813 262.721498 
L 208.748709 263.41761 
L 210.085731 263.576687 
L 217.573054 264.811689 
L 218.910076 265.069187 
L 218.910076 265.069187 
L 219.979693 265.273269 
L 223.45595 265.98386 
L 226.129994 266.600841 
L 227.467016 266.934572 
L 227.734421 267.003276 
L 231.745486 268.104864 
L 246.987536 272.983726 
L 260.090351 277.401487 
L 267.31027 279.815015 
L 324 298.126947 
" clip-path="url(#p38da8a27c6)" style="fill: none; stroke: #000000; stroke-width: 2.25; stroke-linecap: square"/>
   </g>
   <g id="patch_3">
    <path d="M 45 320.4 
L 45 43.2 
" style="fill: none; stroke: #000000; stroke-width: 0.8; stroke-linejoin: miter; stroke-linecap: square"/>
   </g>
   <g id="patch_4">
    <path d="M 324 320.4 
L 324 43.2 
" style="fill: none; stroke: #000000; stroke-width: 0.8; stroke-linejoin: miter; stroke-linecap: square"/>
   </g>
   <g id="patch_5">
    <path d="M 45 320.4 
L 324 320.4 
" style="fill: none; stroke: #000000; stroke-width: 0.8; stroke-linejoin: miter; stroke-linecap: square"/>
   </g>
   <g id="patch_6">
    <path d="M 45 43.2 
L 324 43.2 
" style="fill: none; stroke: #000000; stroke-width: 0.8; stroke-linejoin: miter; stroke-linecap: square"/>
   </g>
   <g id="legend_1">
    <g id="patch_7">
     <path d="M 52 197.978125 
L 152.139063 197.978125 
Q 154.139063 197.978125 154.139063 195.978125 
L 154.139063 167.621875 
Q 154.139063 165.621875 152.139063 165.621875 
L 52 165.621875 
Q 50 165.621875 50 167.621875 
L 50 195.978125 
Q 50 197.978125 52 197.978125 
z
" style="fill: #ffffff; opacity: 0.8; stroke: #cccccc; stroke-linejoin: miter"/>
    </g>
    <g id="PathCollection_3">
     <g>
      <use xlink:href="#m8e82c93685" x="64" y="174.595312" style="fill: #a9a9a9; fill-opacity: 0.8; stroke: #a9a9a9; stroke-opacity: 0.8"/>
     </g>
    </g>
    <g id="text_14">
     <!-- Accumulation -->
     <g transform="translate(82 177.220312)scale(0.1 -0.1)">
      <defs>
       <path id="DejaVuSans-63" d="M 3122 3366 
L 3122 2828 
Q 2878 2963 2633 3030 
Q 2388 3097 2138 3097 
Q 1578 3097 1268 2742 
Q 959 2388 959 1747 
Q 959 1106 1268 751 
Q 1578 397 2138 397 
Q 2388 397 2633 464 
Q 2878 531 3122 666 
L 3122 134 
Q 2881 22 2623 -34 
Q 2366 -91 2075 -91 
Q 1284 -91 818 406 
Q 353 903 353 1747 
Q 353 2603 823 3093 
Q 1294 3584 2113 3584 
Q 2378 3584 2631 3529 
Q 2884 3475 3122 3366 
z
" transform="scale(0.015625)"/>
       <path id="DejaVuSans-75" d="M 544 1381 
L 544 3500 
L 1119 3500 
L 1119 1403 
Q 1119 906 1312 657 
Q 1506 409 1894 409 
Q 2359 409 2629 706 
Q 2900 1003 2900 1516 
L 2900 3500 
L 3475 3500 
L 3475 0 
L 2900 0 
L 2900 538 
Q 2691 219 2414 64 
Q 2138 -91 1772 -91 
Q 1169 -91 856 284 
Q 544 659 544 1381 
z
M 1991 3584 
L 1991 3584 
z
" transform="scale(0.015625)"/>
       <path id="DejaVuSans-6d" d="M 3328 2828 
Q 3544 3216 3844 3400 
Q 4144 3584 4550 3584 
Q 5097 3584 5394 3201 
Q 5691 2819 5691 2113 
L 5691 0 
L 5113 0 
L 5113 2094 
Q 5113 2597 4934 2840 
Q 4756 3084 4391 3084 
Q 3944 3084 3684 2787 
Q 3425 2491 3425 1978 
L 3425 0 
L 2847 0 
L 2847 2094 
Q 2847 2600 2669 2842 
Q 2491 3084 2119 3084 
Q 1678 3084 1418 2786 
Q 1159 2488 1159 1978 
L 1159 0 
L 581 0 
L 581 3500 
L 1159 3500 
L 1159 2956 
Q 1356 3278 1631 3431 
Q 1906 3584 2284 3584 
Q 2666 3584 2933 3390 
Q 3200 3197 3328 2828 
z
" transform="scale(0.015625)"/>
       <path id="DejaVuSans-6c" d="M 603 4863 
L 1178 4863 
L 1178 0 
L 603 0 
L 603 4863 
z
" transform="scale(0.015625)"/>
      </defs>
      <use xlink:href="#DejaVuSans-41"/>
      <use xlink:href="#DejaVuSans-63" x="66.658203"/>
      <use xlink:href="#DejaVuSans-63" x="121.638672"/>
      <use xlink:href="#DejaVuSans-75" x="176.619141"/>
      <use xlink:href="#DejaVuSans-6d" x="239.998047"/>
      <use xlink:href="#DejaVuSans-75" x="337.410156"/>
      <use xlink:href="#DejaVuSans-6c" x="400.789062"/>
      <use xlink:href="#DejaVuSans-61" x="428.572266"/>
      <use xlink:href="#DejaVuSans-74" x="489.851562"/>
      <use xlink:href="#DejaVuSans-69" x="529.060547"/>
      <use xlink:href="#DejaVuSans-6f" x="556.84375"/>
      <use xlink:href="#DejaVuSans-6e" x="618.025391"/>
     </g>
    </g>
    <g id="PathCollection_4">
     <g>
      <use xlink:href="#m8b3c5108c4" x="64" y="189.273437" style="fill-opacity: 0.8; stroke: #000000; stroke-opacity: 0.8"/>
     </g>
    </g>
    <g id="text_15">
     <!-- Melt -->
     <g transform="translate(82 191.898437)scale(0.1 -0.1)">
      <defs>
       <path id="DejaVuSans-4d" d="M 628 4666 
L 1569 4666 
L 2759 1491 
L 3956 4666 
L 4897 4666 
L 4897 0 
L 4281 0 
L 4281 4097 
L 3078 897 
L 2444 897 
L 1241 4097 
L 1241 0 
L 628 0 
L 628 4666 
z
" transform="scale(0.015625)"/>
      </defs>
      <use xlink:href="#DejaVuSans-4d"/>
      <use xlink:href="#DejaVuSans-65" x="86.279297"/>
      <use xlink:href="#DejaVuSans-6c" x="147.802734"/>
      <use xlink:href="#DejaVuSans-74" x="175.585938"/>
     </g>
    </g>
   </g>
  </g>
 </g>
 <defs>
  <clipPath id="p38da8a27c6">
   <rect x="45" y="43.2" width="279" height="277.2"/>
  </clipPath>
 </defs>
</svg>
